{"title":"Open.Water.2.Adrift.2006.DVDRiP.XViD.AC3.Optional.NORDIC.Zen_Bud","uid":5835273,"size":1476912778,"categoryP":"video","categoryS":"movies","magnet":"?xt=urn:btih:a4ef75fb6560a273de3daf1f9e4cf64a48ab93cb&amp;dn=Open.Water.2.Adrift.2006.DVDRiP.XViD.AC3.Optional.NORDIC.Zen_Bud&amp;tr=udp%3A%2F%2Ftracker.openbittorrent.com%3A80&amp;tr=udp%3A%2F%2Fopen.demonii.com%3A1337&amp;tr=udp%3A%2F%2Ftracker.coppersurfer.tk%3A6969&amp;tr=udp%3A%2F%2Fexodus.desync.com%3A6969","seeders":1,"leechers":0,"uploader":"Zen_Bud","files":-1,"time":1284708209,"description":"\nComplete name                    : Open.Water.2.Adrift.2006.avi\nFormat                           : AVI\nFile size                        : 1.37 GiB\nDuration                         : 1h 30mn\nOverall bit rate                 : 2 160 Kbps\n\nVideo\n\nFormat                           : MPEG-4 Visual\nCodec ID/Hint                    : XviD\nDuration                         : 1h 30mn\nBit rate                         : 1 701 Kbps\nWidth                            : 716 pixels\nHeight                           : 436 pixels\nDisplay aspect ratio             : 2.35:1\nStream size                      : 1.08 GiB (79%)\nWriting library                  : XviD 1.1.2 (UTC 2006-11-01)\n\nAudio\n\nFormat                           : AC-3\nDuration                         : 1h 30mn\nBit rate                         : 448 Kbps\nChannel(s)                       : 6 channels\nChannel positions                : Front: L C R, Side: L R, LFE\nSampling rate                    : 48.0 KHz\nBit depth                        : 16 bits\nStream size                      : 291 MiB (21%)\n\n\nText #1\nLanguage                         : Danish\n\nText #2\nLanguage                         : Swedish\n\nText #3\nLanguage                         : Norwegian\n\nText #4\nLanguage                         : Finnish","torrent":{"xt":"urn:btih:a4ef75fb6560a273de3daf1f9e4cf64a48ab93cb","amp;dn":"Open.Water.2.Adrift.2006.DVDRiP.XViD.AC3.Optional.NORDIC.Zen_Bud","amp;tr":["udp%3A%2F%2Ftracker.openbittorrent.com%3A80","udp%3A%2F%2Fopen.demonii.com%3A1337","udp%3A%2F%2Ftracker.coppersurfer.tk%3A6969","udp%3A%2F%2Fexodus.desync.com%3A6969"],"infoHash":"a4ef75fb6560a273de3daf1f9e4cf64a48ab93cb","infoHashBuffer":{"type":"Buffer","data":[164,239,117,251,101,96,162,115,222,61,175,31,158,76,246,74,72,171,147,203]},"announce":[],"urlList":[]}}